<svg width="27" height="28" viewBox="0 0 27 28" fill="none" xmlns="http://www.w3.org/2000/svg">
<path fill-rule="evenodd" clip-rule="evenodd" d="M9.46426 1.2372C9.20209 0.898055 8.71463 0.835653 8.37548 1.09783C8.03633 1.36 7.97393 1.84746 8.2361 2.18661L11.4126 6.2958C10.9203 6.7637 10.5494 7.3705 10.3557 8.05753H4.39847C1.96926 8.05753 0 10.0268 0 12.456V23.4729C0 25.9021 1.96926 27.8714 4.39846 27.8714H22.02C24.4492 27.8714 26.4184 25.9021 26.4184 23.4729V12.456C26.4184 10.0268 24.4492 8.05753 22.02 8.05753H17.3711C17.1817 7.38577 16.8229 6.79071 16.3468 6.32721L19.497 2.19115C19.7568 1.85013 19.6909 1.36312 19.3499 1.10339C19.0089 0.843651 18.5219 0.909541 18.2621 1.25056L15.0241 5.50188C14.6594 5.37355 14.2691 5.30403 13.8634 5.30403C13.4747 5.30403 13.1002 5.36784 12.7487 5.48604L9.46426 1.2372ZM3.30225 13.1192C3.30225 12.1475 4.08995 11.3598 5.06163 11.3598H18.0544C19.0261 11.3598 19.8138 12.1475 19.8138 13.1192V22.8096C19.8138 23.7813 19.0261 24.569 18.0544 24.569H5.06163C4.08995 24.569 3.30225 23.7813 3.30225 22.8096V13.1192ZM23.1161 16.3133C24.028 16.3133 24.7673 15.5741 24.7673 14.6622C24.7673 13.7503 24.028 13.011 23.1161 13.011C22.2042 13.011 21.465 13.7503 21.465 14.6622C21.465 15.5741 22.2042 16.3133 23.1161 16.3133ZM24.7673 18.7901C24.7673 19.702 24.028 20.4413 23.1161 20.4413C22.2042 20.4413 21.465 19.702 21.465 18.7901C21.465 17.8782 22.2042 17.1389 23.1161 17.1389C24.028 17.1389 24.7673 17.8782 24.7673 18.7901Z" fill="#03D6A1"/>
</svg>
