<svg width="27" height="28" viewBox="0 0 27 28" fill="none" xmlns="http://www.w3.org/2000/svg">
<path fill-rule="evenodd" clip-rule="evenodd" d="M9.46426 1.23717C9.20209 0.898025 8.71463 0.835623 8.37548 1.09779C8.03633 1.35997 7.97393 1.84743 8.2361 2.18658L11.4126 6.29577C10.9203 6.76367 10.5494 7.37047 10.3557 8.0575H4.39847C1.96926 8.0575 0 10.0268 0 12.456V23.4729C0 25.9021 1.96926 27.8713 4.39846 27.8713H22.02C24.4492 27.8713 26.4184 25.9021 26.4184 23.4729V12.456C26.4184 10.0268 24.4492 8.0575 22.02 8.0575H17.3711C17.1817 7.38574 16.8229 6.79068 16.3468 6.32718L19.497 2.19112C19.7568 1.8501 19.6909 1.36309 19.3499 1.10336C19.0089 0.84362 18.5219 0.909511 18.2621 1.25053L15.0241 5.50185C14.6594 5.37352 14.2691 5.304 13.8634 5.304C13.4747 5.304 13.1002 5.3678 12.7487 5.48601L9.46426 1.23717ZM3.30225 13.1191C3.30225 12.1474 4.08995 11.3597 5.06163 11.3597H18.0544C19.0261 11.3597 19.8138 12.1474 19.8138 13.1191V22.8096C19.8138 23.7813 19.0261 24.569 18.0544 24.569H5.06163C4.08995 24.569 3.30225 23.7813 3.30225 22.8096V13.1191ZM23.1161 16.3133C24.028 16.3133 24.7673 15.574 24.7673 14.6621C24.7673 13.7502 24.028 13.011 23.1161 13.011C22.2042 13.011 21.465 13.7502 21.465 14.6621C21.465 15.574 22.2042 16.3133 23.1161 16.3133ZM24.7673 18.7901C24.7673 19.702 24.028 20.4412 23.1161 20.4412C22.2042 20.4412 21.465 19.702 21.465 18.7901C21.465 17.8782 22.2042 17.1389 23.1161 17.1389C24.028 17.1389 24.7673 17.8782 24.7673 18.7901Z" fill="#BFC4CD"/>
</svg>
