<svg width="60" height="60" viewBox="0 0 60 60" fill="none" xmlns="http://www.w3.org/2000/svg">
<rect width="60" height="60" rx="15" fill="#FF2480"/>
<path d="M19.3344 36.9282C18.2928 37.9697 18.2401 39.9604 19.3871 41.1074C20.5341 42.2544 22.5248 42.2017 23.5663 41.1602L29.9867 34.7266L36.3939 41.147C37.5013 42.2544 39.4393 42.228 40.5731 41.0942C41.7201 39.9473 41.7333 38.0225 40.6259 36.915L34.2186 30.5078L40.6259 24.1006C41.7333 22.9932 41.7201 21.0552 40.5731 19.9214C39.4393 18.7744 37.5013 18.7612 36.3939 19.8686L29.9867 26.2759L23.5663 19.8555C22.5248 18.814 20.5341 18.7612 19.3871 19.9082C18.2401 21.042 18.2928 23.0327 19.3344 24.0742L25.7679 30.5078L19.3344 36.9282Z" fill="white"/>
</svg>
