<svg width="50" height="50" viewBox="0 0 50 50" fill="none" xmlns="http://www.w3.org/2000/svg">
<circle cx="25" cy="25" r="25" fill="#03D6A1"/>
<path d="M24.993 13.7255C23.764 13.7255 22.9484 14.5746 22.9484 15.8706L22.6591 20.5763L22.1689 27.9292L21.6189 27.3448L19.0827 24.7863C18.7029 24.3953 18.2448 24.116 17.608 24.116C16.5242 24.116 15.6863 24.9092 15.6863 26.0711C15.6863 26.6074 15.9097 27.1214 16.3231 27.5347L23.4959 34.7187C23.8534 35.0762 24.4455 35.2997 24.993 35.2997C25.5405 35.2997 26.1326 35.0762 26.4901 34.7187L33.6741 27.5347C34.0874 27.1214 34.3109 26.6074 34.3109 26.0711C34.3109 24.9092 33.473 24.116 32.3892 24.116C31.7524 24.116 31.2943 24.3953 30.9144 24.7863L28.3671 27.3448L27.5611 27.9292V25.4782L27.0376 15.8706C27.0376 14.5746 26.222 13.7255 24.993 13.7255Z" fill="white"/>
</svg>
