<svg width="60" height="60" viewBox="0 0 60 60" fill="none" xmlns="http://www.w3.org/2000/svg">
<rect width="60" height="60" rx="15" fill="#03D6A1"/>
<path d="M18.2204 21.2204C21.1808 18.2599 25.9807 18.2599 28.9412 21.2204L33.0816 25.3608C37.2263 29.5055 37.2263 36.2253 33.0816 40.37C31.3053 42.1462 28.4254 42.1462 26.6491 40.37L18.2204 31.9412C15.2599 28.9807 15.2599 24.1808 18.2204 21.2204Z" fill="white"/>
<path d="M41.4995 21.2204C38.5391 18.2599 33.7392 18.2599 30.7787 21.2204L26.6383 25.3608C22.4936 29.5055 22.4936 36.2253 26.6382 40.37C28.4145 42.1462 31.2945 42.1462 33.0707 40.37L41.4995 31.9412C44.46 28.9807 44.46 24.1808 41.4995 21.2204Z" fill="white"/>
</svg>
