<svg width="89" height="29" viewBox="0 0 89 29" fill="none" xmlns="http://www.w3.org/2000/svg">
<path d="M22.5252 21.8381C21.5925 21.9932 20.6434 22.0397 19.6617 22.1634L16.6672 13.8615V22.5198C15.7345 22.6127 14.8836 22.7366 14 22.8605V7H16.4873L19.8907 15.9991V7H22.5252V21.8381ZM27.6796 12.8083C28.6942 12.8083 30.2487 12.7618 31.1813 12.7618V15.2399C30.0195 15.2399 28.6614 15.2399 27.6796 15.2864V18.9728C29.2178 18.8799 30.7559 18.7559 32.3103 18.7094V21.0945L25.0614 21.6368V7H32.3103V9.4782H27.6796V12.8083ZM42.0464 9.47826H39.3301V20.878C38.4465 20.878 37.5629 20.878 36.7122 20.9088V9.47826H33.9959V7H42.0465L42.0464 9.47826ZM46.3008 12.638H49.8844V15.1161H46.3008V20.7386H43.7316V7H51.0462V9.4782H46.3008V12.638ZM55.3005 18.5701C56.7896 18.601 58.2949 18.7096 59.7513 18.7869V21.2341C57.4114 21.0946 55.0715 20.9554 52.6825 20.9088V7H55.3005V18.5701ZM61.9603 21.4045C62.7948 21.4511 63.6785 21.4975 64.5293 21.5903V7H61.9603V21.4045ZM76 7L72.6782 14.543L76 22.8605C75.0181 22.7366 74.0363 22.5662 73.0545 22.4113L71.1728 17.8267L69.2585 22.0397C68.3093 21.8846 67.393 21.8381 66.4441 21.7142L69.8148 14.45L66.7712 7H69.5855L71.3037 11.1665L73.1364 7H76V7Z" fill="#FF0000"/>
</svg>
