<svg width="60" height="48" viewBox="0 0 60 48" fill="none" xmlns="http://www.w3.org/2000/svg">
<path d="M24.7329 16.8701L22.0953 24.7829C21.7002 25.9683 22.5825 27.1925 23.8321 27.1925H32.8173C34.0669 27.1925 34.9492 25.9683 34.5541 24.7829L33.6826 22.1686C29.1302 20.752 26.9887 19.3465 24.7329 16.8701Z" fill="#BFC4CD"/>
<path d="M41.3661 3.4332C42.3141 3.4332 43.0827 2.66465 43.0827 1.7166C43.0827 0.768548 42.3141 0 41.3661 0C40.418 0 39.6495 0.768548 39.6495 1.7166C39.6495 1.93073 39.6887 2.13571 39.7603 2.32474L36.9775 5.44919L38.2152 6.53214L41.0085 3.3959C41.1238 3.42034 41.2434 3.4332 41.3661 3.4332Z" fill="#BFC4CD"/>
<path d="M28.2255 1.38004C26.6953 -0.0253922 24.2293 0.131017 23.5514 2.09496C22.0148 6.54606 23.4546 12.0332 27.5717 15.8146C31.6889 19.5961 37.2784 20.5651 41.583 18.6565C43.4824 17.8143 43.429 15.344 41.8988 13.9385L28.2255 1.38004Z" fill="#BFC4CD"/>
</svg>
