<svg width="60" height="60" viewBox="0 0 60 60" fill="none" xmlns="http://www.w3.org/2000/svg">
<rect width="60" height="60" rx="15" fill="#1AC8ED"/>
<path d="M30.0388 30.7634C31.1638 30.7634 32.056 29.8768 32.056 28.759C32.056 28.1936 31.8233 27.8082 31.4871 27.4612L29.1724 25.1998C29.4828 25.1741 29.819 25.1741 30.181 25.1741C34.4871 25.1741 37.8103 28.5919 37.8103 33.0634C37.8103 37.3549 34.3319 40.837 30 40.837C25.6681 40.837 22.1638 37.3549 22.1638 33.0634C22.1638 31.7913 21.3103 30.9433 20.1078 30.9433C18.8793 30.9433 18 31.7913 18 33.0634C18 39.6549 23.3664 45 30 45C36.6336 45 42 39.6549 42 33.0634C42 26.4462 36.7888 21.2295 30.181 21.2295C29.9612 21.2295 29.7414 21.2424 29.5086 21.2552L31.4871 19.3279C31.8233 18.9938 32.056 18.6083 32.056 18.0301C32.056 16.9123 31.1638 16 30.0388 16C29.4957 16 29.0431 16.1927 28.6681 16.5782L23.4181 21.9105C22.9784 22.3217 22.7586 22.8485 22.7586 23.401C22.7586 23.9663 22.9784 24.4674 23.4181 24.8914L28.6681 30.2109C29.0302 30.5835 29.4957 30.7634 30.0388 30.7634Z" fill="white"/>
</svg>
