<svg width="35" height="27" viewBox="0 0 35 27" fill="none" xmlns="http://www.w3.org/2000/svg">
<path fill-rule="evenodd" clip-rule="evenodd" d="M2.35151 3.14202C5.45348 0.0868087 10.4449 0.12472 13.5001 3.22669L14.4482 4.18937L15.411 3.24107C18.513 0.185861 23.5044 0.22377 26.5596 3.32574C28.2098 5.00115 28.9576 7.22775 28.8077 9.40275C27.9969 9.56709 27.2076 9.86376 26.4745 10.2927C23.5435 8.58765 19.7229 8.99323 17.2157 11.5067C14.232 14.4978 14.2381 19.3412 17.2291 22.3249L17.8655 22.9596C17.7963 23.0315 17.726 23.1026 17.6545 23.173C16.7075 24.1057 15.4671 24.558 14.2355 24.5321C13.0427 24.5098 11.8574 24.0391 10.9541 23.122C10.8556 23.022 10.7594 22.9205 10.6655 22.8178L2.26683 14.2906C-0.788374 11.1886 -0.750463 6.19723 2.35151 3.14202ZM33.5228 13.6074C31.7048 11.7939 28.7608 11.7976 26.9473 13.6156L26.3842 14.1801L25.8199 13.6172C24.0019 11.8037 21.0579 11.8073 19.2444 13.6254C17.4309 15.4434 17.4346 18.3873 19.2526 20.2009L24.2555 25.1913C24.3099 25.2496 24.3655 25.3072 24.4224 25.3639C24.9495 25.8897 25.6342 26.1609 26.3239 26.1778C27.0638 26.1975 27.81 25.9246 28.3741 25.3592C28.4324 25.3007 28.4894 25.2414 28.545 25.1813L33.531 20.1829C35.3445 18.3649 35.3408 15.4209 33.5228 13.6074Z" fill="#03D6A1"/>
</svg>
