<svg width="35" height="26" viewBox="0 0 35 26" fill="none" xmlns="http://www.w3.org/2000/svg">
<path fill-rule="evenodd" clip-rule="evenodd" d="M2.35151 2.26683C5.45348 -0.788374 10.4449 -0.750463 13.5001 2.35151L14.4482 3.31418L15.411 2.36589C18.513 -0.689322 23.5044 -0.651413 26.5596 2.45056C28.2098 4.12597 28.9576 6.35256 28.8077 8.52757C27.9969 8.6919 27.2076 8.98857 26.4745 9.41754C23.5435 7.71246 19.7229 8.11804 17.2157 10.6315C14.232 13.6226 14.2381 18.466 17.2291 21.4497L17.8655 22.0844C17.7963 22.1563 17.726 22.2274 17.6545 22.2979C16.7075 23.2305 15.4671 23.6828 14.2355 23.6569C13.0427 23.6346 11.8574 23.1639 10.9541 22.2468C10.8556 22.1468 10.7594 22.0454 10.6655 21.9426L2.26683 13.4154C-0.788374 10.3134 -0.750463 5.32204 2.35151 2.26683ZM33.5228 12.7322C31.7048 10.9187 28.7608 10.9224 26.9473 12.7404L26.3842 13.3049L25.8199 12.742C24.0019 10.9285 21.0579 10.9321 19.2444 12.7502C17.4309 14.5682 17.4346 17.5122 19.2526 19.3257L24.2555 24.3161C24.3099 24.3744 24.3655 24.432 24.4224 24.4888C24.9495 25.0145 25.6342 25.2857 26.3239 25.3026C27.0638 25.3224 27.81 25.0494 28.3741 24.484C28.4324 24.4255 28.4894 24.3662 28.545 24.3061L33.531 19.3077C35.3445 17.4897 35.3408 14.5457 33.5228 12.7322Z" fill="#BFC4CD"/>
</svg>
