<svg width="22" height="25" viewBox="0 0 22 25" fill="none" xmlns="http://www.w3.org/2000/svg">
<path d="M21.0524 1.8371e-06H0.947782C0.592966 -0.00072385 0.267886 0.213595 0.105793 0.554908C-0.0585355 0.900818 -0.0296941 1.31736 0.180244 1.63327L7.54574 12.8594C7.5482 12.8632 7.55089 12.8669 7.55335 12.8707C7.82097 13.2616 7.96584 13.7353 7.96652 14.2217V23.3743C7.96495 23.6452 8.06332 23.9057 8.23973 24.098C8.41635 24.2901 8.65647 24.3985 8.90688 24.3985C9.03409 24.3982 9.16019 24.3709 9.27779 24.3179L13.4166 22.6106C13.7873 22.488 14.0335 22.1094 14.0335 21.6537V14.2217C14.0342 13.7353 14.179 13.2616 14.4464 12.8707C14.4489 12.8669 14.4516 12.8632 14.454 12.8594L21.8198 1.63303C22.0297 1.31736 22.0585 0.90106 21.8942 0.55515C21.7323 0.213595 21.407 -0.00072385 21.0524 1.8371e-06Z" fill="#03D6A1"/>
</svg>
